<svg id="Layer_1" data-name="Layer 1" xmlns="http://www.w3.org/2000/svg" viewBox="0 0 195.12 196.17"><circle cx="97.62" cy="98.09" r="92.38"/><path d="M123.69,216.59a86.65,86.65,0,0,1-26.93-4.24,92.8,92.8,0,0,1-27-14.47,89.66,89.66,0,0,1-26.95-32.26,96.62,96.62,0,0,1-8-24.29,41.39,41.39,0,0,1-.88-6.54,8.65,8.65,0,0,1,2.21-6.48,8.75,8.75,0,0,1,6.45-2.47H58.86l6.5,0H86.93c.48,0,.82,0,1.13,0a10.22,10.22,0,0,1,2,.17c7.11,0,58.38-.24,70.23-.24,2.6,0,2.69,0,3,0,.49,0,1.13.08,1.64.08h15.46q12,0,24,0a6.83,6.83,0,0,0,.77-.06c.54,0,1.22-.11,2-.11a12.09,12.09,0,0,1,2.81.32,7.6,7.6,0,0,1,6.14,8.63,91.06,91.06,0,0,1-61.56,77,98.9,98.9,0,0,1-24.17,4.76C128.07,216.51,125.86,216.59,123.69,216.59Z" transform="translate(-27.44 -26.91)" fill="#e1e1e1"/><path d="M207.05,132.16a5.58,5.58,0,0,1,1.28.14c1,.25,1.32.58,1.21,1.63a84.57,84.57,0,0,1-57.14,71.49,92,92,0,0,1-22.58,4.45c-2,.14-4.1.22-6.13.22a79.67,79.67,0,0,1-24.91-3.92,86.77,86.77,0,0,1-25.13-13.48,82.89,82.89,0,0,1-25-29.94,90.58,90.58,0,0,1-7.42-22.67,35.16,35.16,0,0,1-.76-5.5c-.06-1.75.41-2.23,2.2-2.24H65.36v0H86.75c.22,0,.45,0,.68,0l.63,0a3.18,3.18,0,0,1,1.17.17s58.23-.24,71-.24h2.46c.71,0,1.44.1,2.16.1h15.74q11.83,0,23.67,0c.92,0,1.84-.17,2.76-.17m0-13a25.56,25.56,0,0,0-2.57.14l-.33,0q-11.73,0-23.53,0H164.88c-.27,0-.77,0-1.19-.06s-.93,0-3.43,0c-11.59,0-60.9.2-69.73.23a18.09,18.09,0,0,0-2.47-.16c-.44,0-.89,0-1.37,0H52.36v0H42.53A14.56,14.56,0,0,0,27.45,135a47.81,47.81,0,0,0,1,7.51A103.15,103.15,0,0,0,37,168.48a96.21,96.21,0,0,0,28.88,34.6,99.11,99.11,0,0,0,28.9,15.44,93,93,0,0,0,29,4.57c2.32,0,4.68-.09,7-.25a105.5,105.5,0,0,0,25.76-5.08,97.55,97.55,0,0,0,66-82.47,14.07,14.07,0,0,0-11.11-15.63,17.91,17.91,0,0,0-4.31-.5Z" transform="translate(-27.44 -26.91)"/><path d="M148.2,124.25c-44.18,0-102.63-.06-106-.11a7.67,7.67,0,0,1-8-8.38,49.62,49.62,0,0,1,1.32-8.9l.25-1.15A92.76,92.76,0,0,1,45,80.31a84.91,84.91,0,0,1,11.2-16A88.44,88.44,0,0,1,79.94,45.62,96.84,96.84,0,0,1,108.2,35.15a83.49,83.49,0,0,1,13-1.58c.42,0,.81,0,1.2-.06.71,0,1.5-.1,2.36-.1h.59a89.59,89.59,0,0,1,56.87,20.4,106.2,106.2,0,0,1,8.76,8,86.44,86.44,0,0,1,9.5,11.56,90.51,90.51,0,0,1,13.22,29.58,114.88,114.88,0,0,1,2.11,11.65,8.25,8.25,0,0,1-1.64,6.77,8.39,8.39,0,0,1-6.41,2.79C205.11,124.23,173.9,124.25,148.2,124.25Z" transform="translate(-27.44 -26.91)" fill="#ff2434"/><path d="M124.8,39.91h.44a83.05,83.05,0,0,1,52.94,19,98.39,98.39,0,0,1,8.21,7.47A80.08,80.08,0,0,1,195.16,77a83.54,83.54,0,0,1,12.27,27.46,111.41,111.41,0,0,1,2,11c.24,1.67-.17,2.09-1.82,2.14-2.36.08-28.58.11-59.47.11-46.14,0-102.71-.06-105.85-.11-1.36,0-1.69-.33-1.65-1.69a50.63,50.63,0,0,1,1.43-8.9,86.32,86.32,0,0,1,8.62-23.64A78,78,0,0,1,61,68.63a81.54,81.54,0,0,1,22-17.31,91,91,0,0,1,26.39-9.79,77.2,77.2,0,0,1,12-1.46c1.11,0,2.21-.16,3.32-.16m0-13c-1.07,0-2,.06-2.78.11-.32,0-.64.05-1,.06H121a90.47,90.47,0,0,0-14.06,1.69A103.11,103.11,0,0,0,76.8,39.93,94.84,94.84,0,0,0,51.32,60,91.11,91.11,0,0,0,39.25,77.22a99.48,99.48,0,0,0-9.91,27.16l-.24,1.11a54,54,0,0,0-1.46,10.07A14.15,14.15,0,0,0,42,130.64h.09c3.4.05,61.87.11,106.05.11,56,0,59-.09,59.91-.12a14.32,14.32,0,0,0,14.25-17,123.81,123.81,0,0,0-2.24-12.29,97,97,0,0,0-14.17-31.69,93.82,93.82,0,0,0-10.2-12.41,112.32,112.32,0,0,0-9.32-8.49,96.09,96.09,0,0,0-60.84-21.85Z" transform="translate(-27.44 -26.91)"/><path d="M144.15,125.45l41.41,52.76h-41l-20.42-27.8-20.56,27.8h-41L104,125.45,64,75.24h41l19.15,25.53,19-25.53h41Z" transform="translate(-27.44 -26.91)"/><path d="M125.06,147.89A22.89,22.89,0,1,1,147.94,125,22.92,22.92,0,0,1,125.06,147.89Z" transform="translate(-27.44 -26.91)" fill="#fff"/><path d="M125.05,108.61A16.39,16.39,0,1,1,108.67,125a16.39,16.39,0,0,1,16.38-16.39m0-13A29.39,29.39,0,1,0,154.44,125a29.42,29.42,0,0,0-29.39-29.39Z" transform="translate(-27.44 -26.91)"/></svg>